<?xml version="1.0" encoding="UTF-8"?>
<svg id="Layer_3" xmlns="http://www.w3.org/2000/svg" viewBox="0 0 1216.51 500.06">
  <defs>
    <style>
      .cls-1 {
        fill: #f1563f;
      }

      .cls-1, .cls-2 {
        fill-rule: evenodd;
      }

      .cls-2, .cls-3 {
        fill: #002957;
      }
    </style>
  </defs>
  <g>
    <path class="cls-2" d="M147.99,480.54h-35.23v-185.12l.46.13c13.62,3.73,20.71,4.28,34.29,0l.47-.15v185.14h0ZM130.39,286.87c-46.14,0-82.88-27.35-101.17-55.46l-.37-.57h203.06l-.35.56c-21.88,34.88-58.92,55.47-101.18,55.47h0Z"/>
    <path class="cls-1" d="M70.95,167.61c-5.63-8.21-8.36-15.99-9-26.33-1.43-23.27,15.31-42.25,29.23-61.8,11.92-16.75,23.09-31.81,24.43-38.33,1.01-4.85-1-10.16-2.52-13.42-.02,0,8.82-7.45,9.84-8.21,12.84,11.72,13.61,29.87,7.1,43.57-14.59,30.75-63.33,70.6-59.09,104.52h0ZM162.32,224.49h-20.85c-1.96-7.44-5.1-15.24-6.31-22.84-1.49-9.29-.85-14.58,5.8-21.37,9.52-9.71,32.99-25.47,38.63-32.68,4.86-6.22,1.98-14.26,1.98-14.26,0,.02,9.64-8.02,9.59-8.02,11.93,13.86,8.64,34.04-.3,41.65-6.5,5.53-20.46,17.06-29.65,26.28-4.96,5.04-5.3,5.42-3.57,13.26,1.44,6.02,3.44,13.72,4.68,17.96h0ZM134.16,224.49h-24.56c-5.03-14.8-11.42-34.28-5.35-49.66,6.53-16.53,36.2-40.24,54.62-60.87,9.91-12.42,13.62-20.23,7.64-30.93,0,0,9.76-8.04,9.76-8.07,10.41,8.95,18.01,32.73,6.66,47.4-6.86,8.87-13.97,16.45-23.18,26.38-8.99,9.68-17.89,18.03-30.04,32.01-9.3,10.69,1.1,32.1,4.45,43.75h0ZM149.19,42.11c17.2,15.91,13.34,39.65,9.64,46.82-8.07,15.63-26.02,35.75-30.56,41.25-7.57,9.18-30.31,31.56-32.77,43.92-2.07,10.42,1.2,25.72,2.62,31.38h-14.28c-3.63-9.41-9.52-26.65-6.13-46.14,2.49-14.33,22.74-36.99,26.49-41.25,6.71-7.62,25.49-30.47,33.12-40.38,8.7-11.29,8.04-18.53,2.2-27.6.09.09,9.69-8,9.69-8h0Z"/>
  </g>
  <g>
    <path class="cls-3" d="M221.78,297.82l-2.95.18c-2.23.09-3.51.62-3.83,1.6-.31.97-.46,2.48-.46,4.51v35.07c0,6.87-1.66,12.04-4.97,15.52-3.3,3.46-6.6,5.19-9.91,5.19-.55,0-1.01-.05-1.39-.14l-.32-5.68.78-.43c.78.55,1.64.94,2.56,1.17.94.23,1.78.36,2.49.36,1.21,0,2.14-.48,2.81-1.46.69-1,1.03-3.27,1.03-6.82v-42.74c0-2.35-.18-3.92-.53-4.72-.34-.8-1.32-1.25-2.98-1.35l-3.73-.25v-2.21c3.81.16,7.39.25,10.73.25s6.91-.09,10.69-.25v2.21-.02Z"/>
    <path class="cls-3" d="M249.5,321.27l7.18-11.4c2.21-3.51,4.88-8.18,8.03-14h5.83v1.1c-12.51,15.02-18.76,25.24-18.76,30.66v10.05c0,1.99.18,3.46.53,4.4.37.95,1.19,1.47,2.45,1.56l4.26.29v2.21c-3.82-.16-7.39-.25-10.73-.25s-6.88.09-10.69.25v-2.21l3.94-.29c1.54-.09,2.48-.58,2.81-1.46.33-.9.5-2.35.5-4.33v-10.62c0-1.3-.64-3.02-1.92-5.15l-8.28-14.32c-1.71-2.94-3.27-5.04-4.69-6.33-1.43-1.28-2.8-1.99-4.12-2.13l-2.03-.25v-2.21c5.56-1.21,8.48-1.81,8.74-1.81.62,0,1.64.83,3.09,2.49,1.47,1.64,3.02,3.96,4.65,6.97l9.2,16.77Z"/>
    <path class="cls-3" d="M296.18,346.67c-.57-1.96-6.04-15.99-16.41-42.07-1.09-2.8-1.94-4.55-2.56-5.26-.59-.71-1.53-1.15-2.81-1.32l-2.1-.21v-2.21c3.81.16,6.74.25,8.78.25,2.6,0,6.13-.09,10.55-.25v2.21l-3.69.25c-1.78.09-2.67.52-2.67,1.28,0,.41.44,1.69,1.32,3.87l13.25,34.1,11.65-30.56c1.44-3.83,2.17-6.04,2.17-6.61,0-1.35-1.16-2.07-3.48-2.17l-2.91-.18v-2.21c3.96.16,6.67.25,8.14.25,2.28,0,4.82-.09,7.64-.25v2.21l-2.06.25c-1.32.14-2.46,1.4-3.41,3.76-3.46,8.29-7.07,17-10.84,26.12-3.74,9.12-6.07,15.36-7,18.72h-3.55v.02Z"/>
    <path class="cls-3" d="M352.87,329.22h-21.14l-2.24,5.75c-1.49,3.67-2.24,5.93-2.24,6.79,0,1.16.94,1.81,2.81,1.96l3.34.22v2.21c-3.83-.16-6.66-.25-8.5-.25-1.47,0-4.22.09-8.25.25v-2.21l2.67-.22c1.64-.14,2.96-1.41,3.98-3.8l19.51-44.84h2.38l18.19,42.07c1.07,2.53,1.94,4.27,2.63,5.22.71.92,1.53,1.4,2.45,1.42l2.31.14v2.21c-3.53-.16-6.45-.25-8.78-.25-1.47,0-4.99.09-10.55.25v-2.21l3.8-.29c1.71-.14,2.56-.62,2.56-1.46,0-.52-.39-1.74-1.17-3.66l-3.76-9.31h0ZM333,326.45h18.51l-9.34-21.64-9.17,21.64ZM333.36,286.19c0-.97.31-1.83.92-2.6.64-.76,1.57-1.14,2.81-1.14,1,0,1.84.32,2.53.96.69.64,1.03,1.5,1.03,2.6s-.34,1.93-1.03,2.67c-.69.71-1.59,1.07-2.7,1.07-1.02,0-1.87-.34-2.56-1-.66-.69-1-1.54-1-2.56h0ZM348.03,286.19c0-1.16.34-2.07,1.03-2.74.71-.66,1.61-1,2.7-1s1.89.33,2.56,1c.66.66,1,1.51,1,2.56s-.34,1.93-1.03,2.67c-.69.71-1.59,1.07-2.7,1.07-1.02,0-1.87-.32-2.56-.96-.66-.66-1-1.53-1-2.6h0Z"/>
    <path class="cls-3" d="M374.36,344.79c.36-2.25.53-4.97.53-8.18v-2.81h2.28l.5,4.33c.23,1.92,1.59,3.44,4.05,4.58,2.46,1.11,5.04,1.67,7.75,1.67,3.69,0,6.86-1.03,9.48-3.09,2.65-2.08,3.98-4.77,3.98-8.07s-1.08-5.65-3.23-7.07c-2.16-1.42-5.49-2.39-10.02-2.91-6.04-.78-10.17-2.18-12.4-4.19-2.23-2.03-3.34-4.87-3.34-8.5,0-4.95,1.87-8.89,5.61-11.83,3.74-2.96,8.23-4.44,13.47-4.44,3.39,0,7.73.98,13.04,2.95-.64,3.41-.96,6.79-.96,10.12h-2.38l-.39-3.62c-.21-2.11-1.39-3.69-3.51-4.76-2.13-1.09-4.69-1.64-7.68-1.64s-5.66.96-7.82,2.88c-2.16,1.92-3.23,4.47-3.23,7.68,0,2.94,1.02,5.1,3.06,6.5,2.03,1.38,5.2,2.29,9.48,2.74,6.27.64,10.58,1.92,12.93,3.83,2.35,1.89,3.51,4.49,3.51,7.78,0,5.75-2.12,10.32-6.36,13.68-4.22,3.34-9.55,5.01-16.02,5.01-4.4,0-8.51-.89-12.33-2.67l.02.03Z"/>
    <path class="cls-3" d="M462.79,346.14c-2.11-.16-3.67-.25-4.69-.25-1.14,0-3.1.09-5.9.25l-25.05-24.3-1,.39v15.45c0,3.15.44,4.95,1.32,5.4.87.43,1.8.66,2.77.71l3.16.14v2.21c-4.6-.16-8.17-.25-10.73-.25-2.28,0-5.84.09-10.69.25v-2.21l3.44-.22c1.68-.09,2.74-.52,3.16-1.28.43-.78.64-2.37.64-4.76v-33.61c0-2.23-.2-3.76-.6-4.62-.38-.87-1.5-1.36-3.37-1.46l-3.27-.18v-2.21c4.4.16,7.98.25,10.73.25,2.6,0,6.17-.09,10.69-.25v2.21l-3.9.25c-1.75.09-2.75.62-2.98,1.56-.23.95-.36,2.43-.36,4.44v16.02l20.43-19.9c1.3-1.23,1.96-2.08,1.96-2.56v-2.03c2.46.16,4.57.25,6.33.25,1.11,0,3.1-.09,5.97-.25v2.21l-2.95.18c-1.89.09-3.74.97-5.54,2.63l-19.37,17.51,23.84,22.7c.64.66,1.46,1.35,2.46,2.06,1.01.69,2.19,1.03,3.51,1.03v2.21l-.02.02Z"/>
    <path class="cls-3" d="M489.48,321.27l7.18-11.4c2.21-3.51,4.88-8.18,8.03-14h5.83v1.1c-12.51,15.02-18.76,25.24-18.76,30.66v10.05c0,1.99.18,3.46.53,4.4.37.95,1.19,1.47,2.46,1.56l4.26.29v2.21c-3.82-.16-7.39-.25-10.73-.25s-6.88.09-10.69.25v-2.21l3.94-.29c1.54-.09,2.48-.58,2.81-1.46.33-.9.5-2.35.5-4.33v-10.62c0-1.3-.64-3.02-1.92-5.15l-8.28-14.32c-1.71-2.94-3.27-5.04-4.69-6.33-1.43-1.28-2.8-1.99-4.12-2.13l-2.03-.25v-2.21c5.56-1.21,8.48-1.81,8.74-1.81.62,0,1.64.83,3.09,2.49,1.47,1.64,3.02,3.96,4.65,6.97l9.2,16.77h0Z"/>
    <path class="cls-3" d="M527.53,342.26c1.54.38,4.04.57,7.5.57,6.23,0,10.76-.32,13.61-.96.8-.19,1.47-1.35,1.99-3.48l1.25-5.01h2.38c-.31,2.98-.82,7.15-1.53,12.51-5.85.16-10.61.25-14.29.25-1.4,0-3.23-.04-5.51-.11-2.25-.09-4.22-.14-5.9-.14-3.25,0-6.75.09-10.52.25v-1.67c1.59-.76,2.67-1.44,3.23-2.07.57-.62.85-1.64.85-3.06v-35.53c0-2.07-.18-3.53-.53-4.4-.34-.87-1.42-1.36-3.27-1.46l-3.44-.14v-2.21c3.82.16,7.39.25,10.73.25s6.91-.09,10.69-.25v2.21l-3.76.18c-1.75.05-2.77.57-3.06,1.56-.28,1-.43,2.5-.43,4.51v38.2h0Z"/>
    <path class="cls-3" d="M593.47,329.22h-21.14l-2.24,5.75c-1.49,3.67-2.24,5.93-2.24,6.79,0,1.16.94,1.81,2.81,1.96l3.34.22v2.21c-3.83-.16-6.66-.25-8.5-.25-1.47,0-4.22.09-8.25.25v-2.21l2.67-.22c1.64-.14,2.96-1.41,3.98-3.8l19.51-44.84h2.38l18.19,42.07c1.07,2.53,1.94,4.27,2.63,5.22.71.92,1.53,1.4,2.46,1.42l2.31.14v2.21c-3.53-.16-6.45-.25-8.78-.25-1.47,0-4.99.09-10.55.25v-2.21l3.8-.29c1.71-.14,2.56-.62,2.56-1.46,0-.52-.39-1.74-1.17-3.66l-3.76-9.31h-.02ZM573.61,326.45h18.51l-9.34-21.64-9.17,21.64ZM573.96,286.19c0-.97.31-1.83.92-2.6.64-.76,1.57-1.14,2.81-1.14,1,0,1.84.32,2.53.96s1.03,1.5,1.03,2.6-.34,1.93-1.03,2.67c-.69.71-1.59,1.07-2.7,1.07-1.02,0-1.87-.34-2.56-1-.66-.69-1-1.54-1-2.56h0ZM588.64,286.19c0-1.16.34-2.07,1.03-2.74.71-.66,1.61-1,2.7-1s1.89.33,2.56,1c.66.66,1,1.51,1,2.56s-.34,1.93-1.03,2.67c-.69.71-1.59,1.07-2.7,1.07-1.02,0-1.87-.32-2.56-.96-.66-.66-1-1.53-1-2.6h0Z"/>
    <path class="cls-3" d="M624.24,303.54v34.14c0,2.82.26,4.51.78,5.08.52.55,1.44.87,2.77.96l3.37.22v2.21c-3.79-.16-6.61-.25-8.46-.25-2.06,0-4.97.09-8.74.25v-2.21l2.81-.22c1.51-.09,2.58-.41,3.2-.96.62-.57.92-2.26.92-5.08v-33.61c0-2.8-.27-4.47-.82-5.01-.52-.57-1.43-.9-2.7-1l-3.41-.25v-2.21c3.24.16,5.56.25,6.97.25,1.09,0,2.98-.09,5.68-.25l35.21,43.17v-34.71c0-2.28-.16-3.83-.5-4.65-.3-.85-1.34-1.32-3.09-1.42l-3.34-.18v-2.21c3.76.16,6.59.25,8.46.25,2.03,0,4.95-.09,8.74-.25v2.21l-2.98.18c-1.73.09-2.82.48-3.27,1.14-.45.64-.68,2.28-.68,4.94v40.32c0,.8.08,1.82.22,3.06l-6.58-1.14-34.56-42.78h0Z"/>
    <path class="cls-3" d="M717.72,321.27l7.18-11.4c2.21-3.51,4.88-8.18,8.03-14h5.83v1.1c-12.51,15.02-18.76,25.24-18.76,30.66v10.05c0,1.99.18,3.46.53,4.4.37.95,1.19,1.47,2.46,1.56l4.26.29v2.21c-3.82-.16-7.39-.25-10.73-.25s-6.88.09-10.69.25v-2.21l3.94-.29c1.54-.09,2.48-.58,2.81-1.46.34-.9.5-2.35.5-4.33v-10.62c0-1.3-.64-3.02-1.92-5.15l-8.28-14.32c-1.71-2.94-3.27-5.04-4.69-6.33-1.42-1.28-2.8-1.99-4.12-2.13l-2.03-.25v-2.21c5.56-1.21,8.48-1.81,8.74-1.81.62,0,1.64.83,3.09,2.49,1.47,1.64,3.02,3.96,4.65,6.97l9.2,16.77h0Z"/>
    <path class="cls-3" d="M755.77,342.26c1.54.38,4.04.57,7.5.57,6.23,0,10.76-.32,13.61-.96.8-.19,1.47-1.35,1.99-3.48l1.25-5.01h2.38c-.31,2.98-.82,7.15-1.53,12.51-5.85.16-10.61.25-14.29.25-1.4,0-3.23-.04-5.51-.11-2.25-.09-4.22-.14-5.89-.14-3.25,0-6.75.09-10.52.25v-1.67c1.59-.76,2.67-1.44,3.23-2.07.57-.62.85-1.64.85-3.06v-35.53c0-2.07-.18-3.53-.53-4.4-.34-.87-1.42-1.36-3.27-1.46l-3.44-.14v-2.21c3.82.16,7.39.25,10.73.25s6.91-.09,10.69-.25v2.21l-3.76.18c-1.75.05-2.77.57-3.06,1.56-.28,1-.43,2.5-.43,4.51v38.2h0Z"/>
    <path class="cls-3" d="M786.04,343.93l3.27-.22c1.75-.09,2.85-.48,3.3-1.14.45-.69.68-2.33.68-4.94v-33.61c0-1.73-.13-3.13-.39-4.19-.23-1.09-1.28-1.68-3.13-1.78l-3.73-.25v-2.21c3.81.16,7.39.25,10.73.25s6.91-.09,10.69-.25v2.21l-3.66.32c-1.87.14-2.94.69-3.2,1.64-.27.95-.39,2.39-.39,4.33v33.61c0,2.96.28,4.68.85,5.15.59.48,1.56.76,2.91.85l3.48.22v2.21c-4.6-.16-8.18-.25-10.73-.25-2.89,0-6.45.09-10.69.25v-2.21h0Z"/>
    <path class="cls-3" d="M810.59,321.09c0-7.79,2.46-14.2,7.36-19.22,4.9-5.04,11.12-7.57,18.66-7.57,8.21,0,14.89,2.08,20,6.25,5.14,4.15,7.72,10.3,7.72,18.44s-2.63,14.58-7.89,20.15c-5.24,5.54-12.04,8.32-20.43,8.32-7.63,0-13.78-2.42-18.44-7.25-4.64-4.83-6.97-11.21-6.97-19.12h0ZM818.27,317.92c0,8.15,1.89,14.61,5.65,19.37,3.76,4.74,8.64,7.11,14.61,7.11s10.26-2.01,13.4-6.04c3.15-4.05,4.72-9.76,4.72-17.12s-1.72-13.51-5.15-17.66c-3.44-4.15-8.32-6.22-14.64-6.22-5.73,0-10.27,1.82-13.61,5.47-3.31,3.65-4.97,8.68-4.97,15.1h0Z"/>
    <path class="cls-3" d="M881.94,299.52v38.16c0,2.35.23,3.94.68,4.76.47.8,1.71,1.25,3.69,1.35l2.88.14v2.21c-3.81-.16-7.39-.25-10.73-.25s-6.88.09-10.69.25v-2.21l3.62-.29c1.38-.09,2.32-.41,2.84-.96.52-.57.78-2.24.78-5.01v-33.61c0-2.58-.28-4.19-.85-4.83-.55-.64-1.47-1.01-2.77-1.1l-3.62-.32v-2.21c4.88.16,9.19.25,12.93.25,1.87,0,4.22-.04,7.04-.11,2.84-.09,4.9-.14,6.18-.14,4.41,0,7.96,1.01,10.66,3.02,2.73,1.99,4.08,4.76,4.08,8.32,0,4.52-1.75,8.25-5.25,11.15-3.48,2.89-7.68,4.33-12.61,4.33-1.38,0-2.78-.14-4.23-.43l-.75-2.81c1.54.48,3.14.71,4.79.71,3.15,0,5.73-1.03,7.75-3.09,2.03-2.08,3.06-4.68,3.06-7.78,0-6.91-4.18-10.37-12.54-10.37-2.28,0-4.58.28-6.93.85v.02Z"/>
    <path class="cls-3" d="M911.71,343.93l3.27-.22c1.75-.09,2.85-.48,3.3-1.14.45-.69.67-2.33.67-4.94v-33.61c0-1.73-.13-3.13-.39-4.19-.24-1.09-1.28-1.68-3.13-1.78l-3.73-.25v-2.21c3.82.16,7.39.25,10.73.25s6.91-.09,10.69-.25v2.21l-3.66.32c-1.87.14-2.94.69-3.2,1.64s-.39,2.39-.39,4.33v33.61c0,2.96.28,4.68.85,5.15.59.48,1.56.76,2.91.85l3.48.22v2.21c-4.6-.16-8.17-.25-10.73-.25-2.89,0-6.45.09-10.69.25v-2.21h0Z"/>
    <path class="cls-3" d="M936.8,344.79c.36-2.25.53-4.97.53-8.18v-2.81h2.28l.5,4.33c.24,1.92,1.59,3.44,4.05,4.58,2.46,1.11,5.04,1.67,7.75,1.67,3.69,0,6.86-1.03,9.48-3.09,2.66-2.08,3.98-4.77,3.98-8.07s-1.08-5.65-3.23-7.07c-2.16-1.42-5.49-2.39-10.01-2.91-6.04-.78-10.18-2.18-12.4-4.19-2.23-2.03-3.34-4.87-3.34-8.5,0-4.95,1.87-8.89,5.61-11.83,3.74-2.96,8.23-4.44,13.47-4.44,3.39,0,7.73.98,13.04,2.95-.64,3.41-.96,6.79-.96,10.12h-2.38l-.39-3.62c-.21-2.11-1.38-3.69-3.51-4.76-2.13-1.09-4.68-1.64-7.67-1.64s-5.67.96-7.82,2.88c-2.16,1.92-3.23,4.47-3.23,7.68,0,2.94,1.01,5.1,3.06,6.5,2.03,1.38,5.2,2.29,9.48,2.74,6.27.64,10.58,1.92,12.93,3.83,2.35,1.89,3.51,4.49,3.51,7.78,0,5.75-2.12,10.32-6.36,13.68-4.22,3.34-9.56,5.01-16.02,5.01-4.4,0-8.51-.89-12.32-2.67v.03Z"/>
    <path class="cls-3" d="M998.86,299.34c-.21,2.06-.32,4.5-.32,7.32v31.02c0,2.87.3,4.58.89,5.15.62.55,1.52.84,2.7.89l3.66.22v2.21c-3.82-.16-7.39-.25-10.73-.25s-6.88.09-10.69.25v-2.21l3.59-.22c1.4-.09,2.35-.44,2.88-1.03.52-.62.78-2.28.78-5.01v-31.16c0-2.87-.1-5.26-.32-7.18h-10.76c-1.42,0-2.32.18-2.7.53-.38.36-.59,1.01-.64,1.96l-.25,5.4h-2.38c0-4.22-.18-8.09-.53-11.62,6.94.16,12.03.25,15.28.25h11.62c2.72,0,7.79-.09,15.21-.25-.36,3.53-.53,7.4-.53,11.62h-2.38l-.21-5.26c-.05-1.09-.3-1.8-.78-2.14-.45-.33-1.32-.5-2.6-.5h-10.77Z"/>
    <path class="cls-3" d="M1019.05,321.09c0-7.79,2.46-14.2,7.36-19.22,4.9-5.04,11.12-7.57,18.66-7.57,8.22,0,14.89,2.08,20.01,6.25,5.14,4.15,7.71,10.3,7.71,18.44s-2.63,14.58-7.89,20.15c-5.24,5.54-12.04,8.32-20.43,8.32-7.63,0-13.77-2.42-18.44-7.25-4.64-4.83-6.97-11.21-6.97-19.12h0ZM1026.73,317.92c0,8.15,1.89,14.61,5.65,19.37,3.76,4.74,8.64,7.11,14.61,7.11s10.27-2.01,13.4-6.04c3.15-4.05,4.72-9.76,4.72-17.12s-1.71-13.51-5.15-17.66c-3.43-4.15-8.32-6.22-14.64-6.22-5.74,0-10.27,1.82-13.61,5.47-3.31,3.65-4.97,8.68-4.97,15.1h0Z"/>
  </g>
  <g>
    <path class="cls-3" d="M199.07,394.31v-2.21c3.81.16,7.39.25,10.73.25s6.91-.09,10.69-.25v2.21l-3.9.32c-1.49.09-2.43.55-2.81,1.39-.36.8-.53,2.35-.53,4.65v25.62c0,4.26,1.1,7.54,3.3,9.8,2.21,2.25,6.1,3.37,11.69,3.37,10.14,0,15.21-5.06,15.21-15.17v-23.66c0-2.7-.26-4.36-.78-4.97-.52-.64-1.5-1.01-2.95-1.1l-3.2-.25v-2.21c3.79.16,6.68.25,8.67.25,1.87,0,4.72-.09,8.53-.25v2.21l-3.8.32c-1.75.14-2.71.87-2.88,2.17-.16,1.3-.25,2.74-.25,4.3v20.93c0,7.65-1.55,13.22-4.65,16.7s-8.39,5.22-15.88,5.22-12.8-1.49-15.67-4.47c-2.84-3.01-4.26-7.33-4.26-12.97v-25.9c0-2.32-.16-3.88-.5-4.69-.34-.8-1.39-1.25-3.16-1.35l-3.59-.25v-.02Z"/>
    <path class="cls-3" d="M266.25,400.03v34.14c0,2.82.26,4.51.78,5.08.52.55,1.44.87,2.77.96l3.37.22v2.21c-3.79-.16-6.61-.25-8.46-.25-2.06,0-4.97.09-8.74.25v-2.21l2.81-.22c1.52-.09,2.58-.41,3.2-.96.62-.57.92-2.26.92-5.08v-33.61c0-2.8-.27-4.47-.82-5.01-.52-.57-1.42-.9-2.7-1l-3.41-.25v-2.21c3.24.16,5.56.25,6.97.25,1.09,0,2.98-.09,5.68-.25l35.21,43.17v-34.71c0-2.28-.16-3.83-.5-4.65-.31-.85-1.34-1.32-3.09-1.42l-3.34-.18v-2.21c3.76.16,6.59.25,8.46.25,2.03,0,4.95-.09,8.74-.25v2.21l-2.98.18c-1.73.09-2.82.48-3.27,1.14-.45.64-.68,2.28-.68,4.94v40.32c0,.8.07,1.82.22,3.06l-6.57-1.14-34.57-42.78h.02Z"/>
    <path class="cls-3" d="M316.88,440.42l3.27-.22c1.75-.09,2.85-.48,3.3-1.14.45-.69.68-2.33.68-4.94v-33.61c0-1.73-.13-3.13-.39-4.19-.23-1.09-1.28-1.68-3.13-1.78l-3.73-.25v-2.21c3.82.16,7.39.25,10.73.25s6.91-.09,10.69-.25v2.21l-3.66.32c-1.87.14-2.94.69-3.2,1.64-.26.95-.39,2.39-.39,4.33v33.61c0,2.96.28,4.68.85,5.15.59.48,1.56.76,2.91.85l3.48.22v2.21c-4.6-.16-8.17-.25-10.73-.25-2.89,0-6.45.09-10.69.25v-2.21h0Z"/>
    <path class="cls-3" d="M364.2,443.16c-.57-1.96-6.04-15.99-16.41-42.07-1.09-2.8-1.94-4.55-2.56-5.26-.59-.71-1.53-1.15-2.81-1.32l-2.1-.21v-2.21c3.81.16,6.74.25,8.78.25,2.6,0,6.13-.09,10.55-.25v2.21l-3.69.25c-1.78.09-2.67.52-2.67,1.28,0,.41.44,1.69,1.32,3.87l13.25,34.1,11.65-30.56c1.44-3.83,2.17-6.04,2.17-6.61,0-1.35-1.16-2.07-3.48-2.17l-2.91-.18v-2.21c3.96.16,6.67.25,8.14.25,2.28,0,4.82-.09,7.64-.25v2.21l-2.06.25c-1.32.14-2.46,1.4-3.41,3.76-3.46,8.29-7.07,17-10.84,26.12-3.74,9.12-6.07,15.36-7,18.72h-3.55v.02Z"/>
    <path class="cls-3" d="M408.12,418.68l-.21,20.08c1.59.38,4.18.57,7.78.57,4.62,0,8.92-.25,12.9-.75,1.23-.14,2.1-1.6,2.63-4.37l.68-3.76h2.38c-.78,4.76-1.17,8.74-1.17,11.94-6.47.16-11.05.25-13.75.25-1.35,0-3.24-.04-5.68-.11-2.44-.09-4.4-.14-5.9-.14-4.83,0-9.14.09-12.93.25v-2.21c2.72-.23,4.47-.51,5.22-.82.76-.3,1.14-2.32,1.14-6.04v-33.29c0-3.24-.59-5.04-1.78-5.4-1.18-.38-2.98-.57-5.37-.57v-2.21c3.76.16,7.58.25,11.44.25,2.28,0,5.56-.04,9.87-.11,4.31-.09,7.09-.14,8.35-.14,3.41,0,6.54.09,9.38.25-.78,3.06-1.18,6.66-1.18,10.8h-2.49v-4.44c0-1.4-1.27-2.3-3.8-2.7-2.51-.41-6.34-.6-11.51-.6-2.56,0-4.63.19-6.22.57l.21,19.15c2.32.16,5.13.25,8.42.25,5.14,0,7.79-.37,7.96-1.11.16-.73.41-2.64.71-5.72h2.38l-.21,8.42c0,.23.07,2.99.21,8.28h-2.38c-.27-2.77-.48-4.6-.64-5.47-.16-.9-2.76-1.35-7.78-1.35-4.29,0-7.18.09-8.67.25v.02Z"/>
    <path class="cls-3" d="M464.65,417.11l16.34,21.39c.55.78,1.18,1.29,1.92,1.53.73.23,1.56.36,2.49.36v2.24c-2.02-.16-3.73-.25-5.15-.25s-3.14.09-5.01.25c-2.42-3.15-6-7.98-10.76-14.5-4.76-6.54-7.86-10.49-9.31-11.87l.46-.85c1.09.09,1.93.14,2.53.14,3.67,0,6.81-.95,9.41-2.84,2.6-1.92,3.9-4.5,3.9-7.75,0-6.54-4.01-9.8-12.04-9.8-2.25,0-4.54.28-6.86.85v38.38c0,2.3.26,3.83.78,4.62.55.78,1.74,1.21,3.59,1.28l2.88.14v2.21c-3.81-.16-7.39-.25-10.73-.25s-6.88.09-10.69.25v-2.21l3.34-.22c1.82-.09,2.92-.65,3.3-1.67.41-1.02.6-2.48.6-4.37v-33.61c0-2.49-.27-4.11-.82-4.87-.52-.76-1.47-1.16-2.84-1.21l-3.02-.18v-2.21c4.62.16,8.71.25,12.26.25,1.94,0,4.24-.04,6.89-.11,2.65-.09,4.76-.14,6.33-.14,4.67,0,8.21.91,10.62,2.74,2.44,1.82,3.66,4.49,3.66,8s-1.35,6.73-4.05,9.31c-2.7,2.58-6.04,4.24-10.02,4.97l.02.02Z"/>
    <path class="cls-3" d="M487.57,441.27c.36-2.25.53-4.97.53-8.18v-2.81h2.28l.5,4.33c.23,1.92,1.59,3.44,4.05,4.58,2.46,1.11,5.04,1.67,7.75,1.67,3.69,0,6.86-1.03,9.48-3.09,2.65-2.08,3.98-4.77,3.98-8.07s-1.08-5.65-3.23-7.07-5.49-2.39-10.02-2.91c-6.04-.78-10.17-2.18-12.4-4.19-2.23-2.03-3.34-4.87-3.34-8.5,0-4.95,1.87-8.89,5.61-11.83,3.74-2.96,8.23-4.44,13.47-4.44,3.39,0,7.73.98,13.04,2.95-.64,3.41-.96,6.79-.96,10.12h-2.38l-.39-3.62c-.21-2.11-1.39-3.69-3.51-4.76-2.13-1.09-4.69-1.64-7.68-1.64s-5.66.96-7.82,2.88c-2.16,1.92-3.23,4.47-3.23,7.68,0,2.94,1.02,5.1,3.06,6.5,2.03,1.38,5.2,2.29,9.48,2.74,6.27.64,10.58,1.92,12.93,3.83,2.35,1.89,3.51,4.49,3.51,7.78,0,5.75-2.12,10.32-6.36,13.68-4.22,3.34-9.55,5.01-16.02,5.01-4.4,0-8.51-.89-12.33-2.67l.02.03Z"/>
    <path class="cls-3" d="M525.19,440.42l3.27-.22c1.75-.09,2.85-.48,3.3-1.14.45-.69.68-2.33.68-4.94v-33.61c0-1.73-.13-3.13-.39-4.19-.23-1.09-1.28-1.68-3.13-1.78l-3.73-.25v-2.21c3.82.16,7.39.25,10.73.25s6.91-.09,10.69-.25v2.21l-3.66.32c-1.87.14-2.94.69-3.2,1.64-.27.95-.39,2.39-.39,4.33v33.61c0,2.96.28,4.68.85,5.15.59.48,1.57.76,2.91.85l3.48.22v2.21c-4.6-.16-8.17-.25-10.73-.25-2.89,0-6.45.09-10.69.25v-2.21h0Z"/>
    <path class="cls-3" d="M574.15,395.84c-.21,2.06-.32,4.5-.32,7.32v31.02c0,2.87.3,4.58.89,5.15.62.55,1.52.84,2.7.89l3.66.22v2.21c-3.81-.16-7.39-.25-10.73-.25s-6.88.09-10.69.25v-2.21l3.59-.22c1.4-.09,2.35-.44,2.88-1.03.52-.62.78-2.28.78-5.01v-31.16c0-2.87-.11-5.26-.32-7.18h-10.76c-1.43,0-2.32.18-2.7.53-.38.36-.59,1.01-.64,1.96l-.25,5.4h-2.38c0-4.22-.18-8.09-.53-11.62,6.94.16,12.03.25,15.28.25h11.62c2.72,0,7.79-.09,15.21-.25-.36,3.53-.53,7.4-.53,11.62h-2.38l-.21-5.26c-.05-1.09-.31-1.8-.78-2.14-.45-.33-1.32-.5-2.6-.5h-10.77Z"/>
    <path class="cls-3" d="M618.96,417.75l7.18-11.4c2.21-3.51,4.88-8.18,8.03-14h5.83v1.1c-12.51,15.02-18.76,25.24-18.76,30.66v10.05c0,1.99.18,3.46.53,4.4.37.95,1.19,1.47,2.46,1.57l4.26.29v2.21c-3.82-.16-7.39-.25-10.73-.25s-6.88.09-10.69.25v-2.21l3.94-.29c1.54-.09,2.48-.58,2.81-1.46.34-.9.5-2.35.5-4.33v-10.62c0-1.3-.64-3.02-1.92-5.15l-8.28-14.32c-1.71-2.94-3.27-5.04-4.69-6.33-1.42-1.28-2.8-1.99-4.12-2.13l-2.03-.25v-2.21c5.56-1.21,8.48-1.81,8.74-1.81.62,0,1.64.83,3.09,2.49,1.47,1.64,3.02,3.96,4.65,6.97l9.2,16.77h0Z"/>
    <path class="cls-3" d="M661.06,417.58c0-7.79,2.46-14.2,7.36-19.22,4.9-5.04,11.12-7.57,18.66-7.57,8.22,0,14.89,2.08,20.01,6.25,5.14,4.15,7.71,10.3,7.71,18.44s-2.63,14.58-7.89,20.15c-5.24,5.54-12.04,8.32-20.43,8.32-7.63,0-13.77-2.42-18.44-7.25-4.65-4.83-6.97-11.21-6.97-19.12h0ZM668.73,414.42c0,8.15,1.89,14.61,5.65,19.37,3.76,4.74,8.64,7.11,14.61,7.11s10.27-2.01,13.4-6.04c3.15-4.05,4.72-9.76,4.72-17.12s-1.71-13.51-5.15-17.66c-3.43-4.15-8.32-6.22-14.64-6.22-5.74,0-10.27,1.82-13.61,5.47-3.31,3.65-4.97,8.68-4.97,15.1h0Z"/>
    <path class="cls-3" d="M755.71,392.35c-.78,3.06-1.17,6.66-1.17,10.8h-2.49v-3.51c0-1.47-.14-2.37-.43-2.7-.26-.36-.87-.66-1.85-.92-1.28-.26-2.75-.46-4.4-.6-1.64-.16-3.91-.25-6.82-.25-2.16,0-4.21.19-6.15.57v19.4c2.28.16,5.04.25,8.32.25,4.47,0,6.95-.3,7.43-.89.48-.62.76-1.44.85-2.49l.32-3.44h2.38c-.14,3.76-.21,6.57-.21,8.42,0,1.28.07,4.04.21,8.28h-2.38l-.25-3.06c-.09-1.23-.39-2.17-.89-2.81-.5-.64-2.89-.96-7.18-.96-2.82,0-5.69.09-8.6.25v15.52c0,3.01.33,4.75,1,5.22.66.48,1.76.76,3.3.85l2.84.14v2.21c-3.76-.16-7.31-.25-10.62-.25-2.77,0-6.3.09-10.58.25v-2.21l3.3-.22c1.3-.09,2.26-.41,2.88-.92.64-.52.96-2.24.96-5.15v-33.75c0-1.21-.13-2.46-.39-3.73-.24-1.3-1.25-2.01-3.02-2.13l-3.73-.21v-2.21c4.97.16,8.78.25,11.4.25,2.28,0,5.25-.04,8.95-.11,3.72-.09,6.27-.14,7.68-.14,2.72,0,5.84.09,9.34.25h0Z"/>
    <path class="cls-3" d="M798.06,394.31l-2.95.18c-2.23.09-3.51.62-3.84,1.6-.3.97-.46,2.48-.46,4.51v35.06c0,6.87-1.66,12.04-4.97,15.52-3.3,3.46-6.6,5.19-9.91,5.19-.55,0-1.01-.05-1.38-.14l-.32-5.68.78-.43c.78.55,1.64.94,2.56,1.17.94.23,1.78.36,2.49.36,1.21,0,2.14-.48,2.81-1.46.69-1,1.03-3.27,1.03-6.82v-42.74c0-2.35-.18-3.92-.53-4.72-.34-.8-1.32-1.25-2.98-1.35l-3.73-.25v-2.21c3.81.16,7.39.25,10.73.25s6.91-.09,10.69-.25v2.21h0Z"/>
    <path class="cls-3" d="M825.77,417.75l7.18-11.4c2.21-3.51,4.88-8.18,8.03-14h5.83v1.1c-12.51,15.02-18.76,25.24-18.76,30.66v10.05c0,1.99.18,3.46.53,4.4.37.95,1.19,1.47,2.46,1.57l4.26.29v2.21c-3.82-.16-7.39-.25-10.73-.25s-6.88.09-10.69.25v-2.21l3.94-.29c1.54-.09,2.48-.58,2.81-1.46.34-.9.5-2.35.5-4.33v-10.62c0-1.3-.64-3.02-1.92-5.15l-8.28-14.32c-1.71-2.94-3.27-5.04-4.69-6.33-1.42-1.28-2.8-1.99-4.12-2.13l-2.03-.25v-2.21c5.56-1.21,8.48-1.81,8.74-1.81.62,0,1.64.83,3.09,2.49,1.47,1.64,3.02,3.96,4.65,6.97l9.2,16.77h0Z"/>
    <path class="cls-3" d="M872.47,443.16c-.57-1.96-6.04-15.99-16.41-42.07-1.09-2.8-1.94-4.55-2.56-5.26-.59-.71-1.53-1.15-2.81-1.32l-2.1-.21v-2.21c3.81.16,6.74.25,8.78.25,2.6,0,6.13-.09,10.55-.25v2.21l-3.69.25c-1.78.09-2.67.52-2.67,1.28,0,.41.44,1.69,1.32,3.87l13.25,34.1,11.65-30.56c1.45-3.83,2.17-6.04,2.17-6.61,0-1.35-1.16-2.07-3.48-2.17l-2.91-.18v-2.21c3.96.16,6.67.25,8.14.25,2.28,0,4.82-.09,7.64-.25v2.21l-2.06.25c-1.32.14-2.46,1.4-3.41,3.76-3.46,8.29-7.08,17-10.84,26.12-3.74,9.12-6.07,15.36-7,18.72h-3.55v.02Z"/>
    <path class="cls-3" d="M929.14,425.72h-21.14l-2.24,5.75c-1.49,3.67-2.24,5.93-2.24,6.79,0,1.16.94,1.81,2.81,1.96l3.34.22v2.21c-3.83-.16-6.66-.25-8.49-.25-1.47,0-4.22.09-8.25.25v-2.21l2.67-.22c1.64-.14,2.96-1.41,3.97-3.8l19.51-44.84h2.38l18.19,42.07c1.07,2.53,1.94,4.27,2.63,5.22.71.92,1.53,1.4,2.46,1.42l2.31.14v2.21c-3.53-.16-6.45-.25-8.78-.25-1.47,0-4.99.09-10.55.25v-2.21l3.8-.29c1.71-.14,2.56-.62,2.56-1.46,0-.52-.39-1.74-1.18-3.66l-3.76-9.31h0ZM909.28,422.94h18.51l-9.34-21.64-9.17,21.64ZM909.63,382.69c0-.97.3-1.84.92-2.6.64-.76,1.57-1.14,2.81-1.14,1,0,1.84.32,2.53.96.69.64,1.03,1.5,1.03,2.6s-.34,1.93-1.03,2.67c-.69.71-1.59,1.07-2.7,1.07-1.01,0-1.87-.34-2.56-1-.66-.69-1-1.54-1-2.56h0ZM924.31,382.69c0-1.16.34-2.07,1.03-2.74.71-.66,1.61-1,2.7-1s1.89.33,2.56,1c.66.66,1,1.52,1,2.56s-.34,1.93-1.03,2.67c-.69.71-1.59,1.07-2.7,1.07-1.02,0-1.87-.32-2.56-.96-.66-.66-1-1.53-1-2.6h0Z"/>
    <path class="cls-3" d="M950.64,441.27c.36-2.25.53-4.97.53-8.18v-2.81h2.28l.5,4.33c.24,1.92,1.59,3.44,4.05,4.58,2.46,1.11,5.04,1.67,7.75,1.67,3.69,0,6.86-1.03,9.48-3.09,2.66-2.08,3.98-4.77,3.98-8.07s-1.08-5.65-3.23-7.07-5.49-2.39-10.02-2.91c-6.04-.78-10.18-2.18-12.4-4.19-2.23-2.03-3.34-4.87-3.34-8.5,0-4.95,1.87-8.89,5.61-11.83,3.74-2.96,8.23-4.44,13.47-4.44,3.39,0,7.73.98,13.04,2.95-.64,3.41-.96,6.79-.96,10.12h-2.38l-.39-3.62c-.21-2.11-1.38-3.69-3.51-4.76-2.13-1.09-4.68-1.64-7.67-1.64s-5.67.96-7.82,2.88c-2.16,1.92-3.23,4.47-3.23,7.68,0,2.94,1.01,5.1,3.06,6.5,2.03,1.38,5.2,2.29,9.48,2.74,6.27.64,10.58,1.92,12.93,3.83,2.35,1.89,3.51,4.49,3.51,7.78,0,5.75-2.12,10.32-6.36,13.68-4.22,3.34-9.55,5.01-16.02,5.01-4.4,0-8.51-.89-12.32-2.67v.03Z"/>
    <path class="cls-3" d="M1039.07,442.63c-2.11-.16-3.67-.25-4.69-.25-1.14,0-3.1.09-5.89.25l-25.05-24.3-1,.39v15.45c0,3.15.44,4.95,1.32,5.4.87.43,1.8.66,2.77.71l3.16.14v2.21c-4.6-.16-8.18-.25-10.73-.25-2.28,0-5.84.09-10.69.25v-2.21l3.44-.22c1.68-.09,2.74-.52,3.16-1.28.43-.78.64-2.37.64-4.76v-33.61c0-2.23-.2-3.76-.61-4.62-.37-.88-1.5-1.36-3.37-1.46l-3.27-.18v-2.21c4.4.16,7.98.25,10.73.25,2.6,0,6.17-.09,10.69-.25v2.21l-3.9.25c-1.75.09-2.75.62-2.98,1.56-.23.95-.36,2.43-.36,4.44v16.02l20.43-19.9c1.3-1.23,1.96-2.08,1.96-2.56v-2.03c2.46.16,4.57.25,6.33.25,1.11,0,3.1-.09,5.97-.25v2.21l-2.95.18c-1.89.09-3.74.97-5.54,2.63l-19.37,17.51,23.84,22.7c.64.66,1.46,1.35,2.46,2.06,1.01.69,2.19,1.03,3.51,1.03v2.23Z"/>
    <path class="cls-3" d="M1065.76,417.75l7.18-11.4c2.21-3.51,4.88-8.18,8.03-14h5.83v1.1c-12.51,15.02-18.76,25.24-18.76,30.66v10.05c0,1.99.18,3.46.53,4.4.37.95,1.19,1.47,2.46,1.57l4.26.29v2.21c-3.82-.16-7.39-.25-10.73-.25s-6.88.09-10.69.25v-2.21l3.94-.29c1.54-.09,2.48-.58,2.81-1.46.34-.9.5-2.35.5-4.33v-10.62c0-1.3-.64-3.02-1.92-5.15l-8.28-14.32c-1.71-2.94-3.27-5.04-4.69-6.33-1.42-1.28-2.8-1.99-4.12-2.13l-2.03-.25v-2.21c5.56-1.21,8.48-1.81,8.74-1.81.62,0,1.64.83,3.09,2.49,1.47,1.64,3.02,3.96,4.65,6.97l9.2,16.77h0Z"/>
    <path class="cls-3" d="M1103.81,438.76c1.54.38,4.04.57,7.5.57,6.23,0,10.76-.32,13.61-.96.8-.19,1.47-1.35,1.99-3.48l1.25-5.01h2.38c-.31,2.98-.82,7.15-1.53,12.51-5.85.16-10.61.25-14.29.25-1.4,0-3.23-.04-5.51-.11-2.25-.09-4.22-.14-5.89-.14-3.25,0-6.75.09-10.52.25v-1.67c1.59-.76,2.67-1.44,3.23-2.07.57-.62.85-1.64.85-3.06v-35.53c0-2.07-.18-3.53-.53-4.4-.34-.87-1.42-1.36-3.27-1.46l-3.44-.14v-2.21c3.82.16,7.39.25,10.73.25s6.91-.09,10.69-.25v2.21l-3.76.18c-1.75.05-2.77.57-3.06,1.56-.28,1-.43,2.5-.43,4.51v38.2h0Z"/>
    <path class="cls-3" d="M1169.75,425.72h-21.14l-2.24,5.75c-1.49,3.67-2.24,5.93-2.24,6.79,0,1.16.94,1.81,2.81,1.96l3.34.22v2.21c-3.84-.16-6.67-.25-8.5-.25-1.47,0-4.22.09-8.25.25v-2.21l2.67-.22c1.64-.14,2.96-1.41,3.98-3.8l19.5-44.84h2.38l18.19,42.07c1.07,2.53,1.94,4.27,2.63,5.22.71.92,1.53,1.4,2.46,1.42l2.31.14v2.21c-3.53-.16-6.45-.25-8.78-.25-1.47,0-4.99.09-10.55.25v-2.21l3.8-.29c1.71-.14,2.56-.62,2.56-1.46,0-.52-.39-1.74-1.17-3.66l-3.77-9.31h0ZM1149.89,422.94h18.51l-9.34-21.64-9.17,21.64ZM1150.25,382.69c0-.97.31-1.84.92-2.6.65-.76,1.57-1.14,2.81-1.14,1,0,1.84.32,2.53.96.69.64,1.03,1.5,1.03,2.6s-.34,1.93-1.03,2.67c-.69.71-1.58,1.07-2.7,1.07-1.02,0-1.87-.34-2.56-1-.66-.69-1-1.54-1-2.56h0ZM1164.92,382.69c0-1.16.34-2.07,1.03-2.74.71-.66,1.61-1,2.7-1s1.89.33,2.56,1c.66.66,1,1.52,1,2.56s-.34,1.93-1.03,2.67c-.69.71-1.58,1.07-2.7,1.07-1.01,0-1.87-.32-2.56-.96-.66-.66-1-1.53-1-2.6h0Z"/>
  </g>
</svg>